<mxfile host="app.diagrams.net" modified="2023-09-18T11:10:43.235Z" agent="Mozilla/5.0 (Windows NT 10.0; Win64; x64) AppleWebKit/537.36 (KHTML, like Gecko) Chrome/116.0.0.0 Safari/537.36" etag="upc9EBEW0yZsrbgvgG60" version="21.7.5" type="device">
  <diagram id="C5RBs43oDa-KdzZeNtuy" name="Page-1">
    <mxGraphModel dx="1195" dy="632" grid="0" gridSize="10" guides="1" tooltips="1" connect="1" arrows="1" fold="1" page="1" pageScale="1" pageWidth="827" pageHeight="1169" math="0" shadow="0">
      <root>
        <mxCell id="WIyWlLk6GJQsqaUBKTNV-0" />
        <mxCell id="WIyWlLk6GJQsqaUBKTNV-1" parent="WIyWlLk6GJQsqaUBKTNV-0" />
        <mxCell id="5zrF2HAZ6nG573hd0Lp7-11" value="Button" style="rounded=1;whiteSpace=wrap;html=1;fontSize=14;glass=0;strokeWidth=1;shadow=0;" parent="WIyWlLk6GJQsqaUBKTNV-1" vertex="1">
          <mxGeometry x="330" y="309" width="120" height="40" as="geometry" />
        </mxCell>
        <mxCell id="5zrF2HAZ6nG573hd0Lp7-12" value="Конец" style="rounded=1;whiteSpace=wrap;html=1;fontSize=12;glass=0;strokeWidth=1;shadow=0;" parent="WIyWlLk6GJQsqaUBKTNV-1" vertex="1">
          <mxGeometry x="328" y="868" width="120" height="40" as="geometry" />
        </mxCell>
        <mxCell id="5zrF2HAZ6nG573hd0Lp7-13" value="" style="endArrow=none;html=1;rounded=0;exitX=0.5;exitY=1;exitDx=0;exitDy=0;entryX=0.5;entryY=0;entryDx=0;entryDy=0;" parent="WIyWlLk6GJQsqaUBKTNV-1" source="5zrF2HAZ6nG573hd0Lp7-11" target="5zrF2HAZ6nG573hd0Lp7-14" edge="1">
          <mxGeometry width="50" height="50" relative="1" as="geometry">
            <mxPoint x="556" y="584" as="sourcePoint" />
            <mxPoint x="388" y="359" as="targetPoint" />
          </mxGeometry>
        </mxCell>
        <mxCell id="5zrF2HAZ6nG573hd0Lp7-14" value="Ввод значений&lt;br&gt;x, y, a" style="shape=parallelogram;perimeter=parallelogramPerimeter;whiteSpace=wrap;html=1;fixedSize=1;" parent="WIyWlLk6GJQsqaUBKTNV-1" vertex="1">
          <mxGeometry x="330" y="389" width="120" height="60" as="geometry" />
        </mxCell>
        <mxCell id="5zrF2HAZ6nG573hd0Lp7-15" value="Ошибка функции&lt;br&gt;вычисления?" style="rhombus;whiteSpace=wrap;html=1;" parent="WIyWlLk6GJQsqaUBKTNV-1" vertex="1">
          <mxGeometry x="317" y="477" width="146" height="80" as="geometry" />
        </mxCell>
        <mxCell id="5zrF2HAZ6nG573hd0Lp7-16" value="" style="endArrow=none;html=1;rounded=0;entryX=0.5;entryY=1;entryDx=0;entryDy=0;exitX=0.5;exitY=0;exitDx=0;exitDy=0;" parent="WIyWlLk6GJQsqaUBKTNV-1" source="5zrF2HAZ6nG573hd0Lp7-15" target="5zrF2HAZ6nG573hd0Lp7-14" edge="1">
          <mxGeometry width="50" height="50" relative="1" as="geometry">
            <mxPoint x="389" y="476" as="sourcePoint" />
            <mxPoint x="606" y="534" as="targetPoint" />
          </mxGeometry>
        </mxCell>
        <mxCell id="5zrF2HAZ6nG573hd0Lp7-17" value="Вывод&lt;br&gt;сообщения&lt;br&gt;об ошибке" style="shape=parallelogram;perimeter=parallelogramPerimeter;whiteSpace=wrap;html=1;fixedSize=1;" parent="WIyWlLk6GJQsqaUBKTNV-1" vertex="1">
          <mxGeometry x="508" y="561" width="120" height="60" as="geometry" />
        </mxCell>
        <mxCell id="5zrF2HAZ6nG573hd0Lp7-18" value="" style="endArrow=none;html=1;rounded=0;exitX=1;exitY=0.5;exitDx=0;exitDy=0;" parent="WIyWlLk6GJQsqaUBKTNV-1" source="5zrF2HAZ6nG573hd0Lp7-15" edge="1">
          <mxGeometry width="50" height="50" relative="1" as="geometry">
            <mxPoint x="556" y="584" as="sourcePoint" />
            <mxPoint x="568" y="517" as="targetPoint" />
          </mxGeometry>
        </mxCell>
        <mxCell id="5zrF2HAZ6nG573hd0Lp7-19" value="" style="endArrow=none;html=1;rounded=0;exitX=0.5;exitY=0;exitDx=0;exitDy=0;" parent="WIyWlLk6GJQsqaUBKTNV-1" source="5zrF2HAZ6nG573hd0Lp7-17" edge="1">
          <mxGeometry width="50" height="50" relative="1" as="geometry">
            <mxPoint x="556" y="584" as="sourcePoint" />
            <mxPoint x="568" y="517" as="targetPoint" />
          </mxGeometry>
        </mxCell>
        <mxCell id="5zrF2HAZ6nG573hd0Lp7-20" value="Да" style="text;html=1;strokeColor=none;fillColor=none;align=center;verticalAlign=middle;whiteSpace=wrap;rounded=0;" parent="WIyWlLk6GJQsqaUBKTNV-1" vertex="1">
          <mxGeometry x="448" y="494" width="60" height="30" as="geometry" />
        </mxCell>
        <mxCell id="5zrF2HAZ6nG573hd0Lp7-21" value="" style="endArrow=none;html=1;rounded=0;entryX=0;entryY=0.5;entryDx=0;entryDy=0;" parent="WIyWlLk6GJQsqaUBKTNV-1" target="5zrF2HAZ6nG573hd0Lp7-15" edge="1">
          <mxGeometry width="50" height="50" relative="1" as="geometry">
            <mxPoint x="262" y="517" as="sourcePoint" />
            <mxPoint x="392" y="548" as="targetPoint" />
          </mxGeometry>
        </mxCell>
        <mxCell id="5zrF2HAZ6nG573hd0Lp7-22" value="Нет" style="text;html=1;strokeColor=none;fillColor=none;align=center;verticalAlign=middle;whiteSpace=wrap;rounded=0;" parent="WIyWlLk6GJQsqaUBKTNV-1" vertex="1">
          <mxGeometry x="272" y="494" width="60" height="30" as="geometry" />
        </mxCell>
        <mxCell id="5zrF2HAZ6nG573hd0Lp7-23" value="&lt;font style=&quot;font-size: 21px;&quot;&gt;value_return = &lt;br style=&quot;&quot;&gt;func_for_zad3(x,y,a)&lt;/font&gt;" style="rounded=0;whiteSpace=wrap;html=1;" parent="WIyWlLk6GJQsqaUBKTNV-1" vertex="1">
          <mxGeometry x="163" y="557" width="196" height="60" as="geometry" />
        </mxCell>
        <mxCell id="5zrF2HAZ6nG573hd0Lp7-24" value="" style="endArrow=none;html=1;rounded=0;entryX=0.5;entryY=0;entryDx=0;entryDy=0;" parent="WIyWlLk6GJQsqaUBKTNV-1" target="5zrF2HAZ6nG573hd0Lp7-23" edge="1">
          <mxGeometry width="50" height="50" relative="1" as="geometry">
            <mxPoint x="262" y="517" as="sourcePoint" />
            <mxPoint x="407" y="593" as="targetPoint" />
          </mxGeometry>
        </mxCell>
        <mxCell id="5zrF2HAZ6nG573hd0Lp7-25" value="&lt;font style=&quot;font-size: 19px;&quot;&gt;Output(textBox_return,&lt;br&gt;&amp;nbsp;value_return)&lt;/font&gt;" style="rounded=0;whiteSpace=wrap;html=1;" parent="WIyWlLk6GJQsqaUBKTNV-1" vertex="1">
          <mxGeometry x="159.5" y="642" width="203" height="60" as="geometry" />
        </mxCell>
        <mxCell id="5zrF2HAZ6nG573hd0Lp7-26" value="" style="endArrow=none;html=1;rounded=0;exitX=0.5;exitY=0;exitDx=0;exitDy=0;entryX=0.5;entryY=1;entryDx=0;entryDy=0;" parent="WIyWlLk6GJQsqaUBKTNV-1" source="5zrF2HAZ6nG573hd0Lp7-25" target="5zrF2HAZ6nG573hd0Lp7-23" edge="1">
          <mxGeometry width="50" height="50" relative="1" as="geometry">
            <mxPoint x="348" y="672" as="sourcePoint" />
            <mxPoint x="398" y="622" as="targetPoint" />
          </mxGeometry>
        </mxCell>
        <mxCell id="5zrF2HAZ6nG573hd0Lp7-27" value="&lt;font style=&quot;font-size: 15px;&quot;&gt;Вывод&lt;br&gt;результата&lt;br&gt;в файл&lt;/font&gt;" style="shape=parallelogram;perimeter=parallelogramPerimeter;whiteSpace=wrap;html=1;fixedSize=1;" parent="WIyWlLk6GJQsqaUBKTNV-1" vertex="1">
          <mxGeometry x="201" y="734" width="120" height="60" as="geometry" />
        </mxCell>
        <mxCell id="5zrF2HAZ6nG573hd0Lp7-28" value="" style="endArrow=none;html=1;rounded=0;exitX=0.5;exitY=1;exitDx=0;exitDy=0;entryX=0.5;entryY=0;entryDx=0;entryDy=0;" parent="WIyWlLk6GJQsqaUBKTNV-1" source="5zrF2HAZ6nG573hd0Lp7-25" target="5zrF2HAZ6nG573hd0Lp7-27" edge="1">
          <mxGeometry width="50" height="50" relative="1" as="geometry">
            <mxPoint x="348" y="672" as="sourcePoint" />
            <mxPoint x="398" y="622" as="targetPoint" />
          </mxGeometry>
        </mxCell>
        <mxCell id="5zrF2HAZ6nG573hd0Lp7-29" value="" style="endArrow=none;html=1;rounded=0;exitX=0.5;exitY=1;exitDx=0;exitDy=0;" parent="WIyWlLk6GJQsqaUBKTNV-1" source="5zrF2HAZ6nG573hd0Lp7-27" edge="1">
          <mxGeometry width="50" height="50" relative="1" as="geometry">
            <mxPoint x="348" y="672" as="sourcePoint" />
            <mxPoint x="261" y="816" as="targetPoint" />
          </mxGeometry>
        </mxCell>
        <mxCell id="5zrF2HAZ6nG573hd0Lp7-30" value="" style="endArrow=none;html=1;rounded=0;" parent="WIyWlLk6GJQsqaUBKTNV-1" edge="1">
          <mxGeometry width="50" height="50" relative="1" as="geometry">
            <mxPoint x="261" y="816" as="sourcePoint" />
            <mxPoint x="569" y="816" as="targetPoint" />
          </mxGeometry>
        </mxCell>
        <mxCell id="5zrF2HAZ6nG573hd0Lp7-31" value="" style="endArrow=none;html=1;rounded=0;entryX=0.5;entryY=1;entryDx=0;entryDy=0;" parent="WIyWlLk6GJQsqaUBKTNV-1" target="5zrF2HAZ6nG573hd0Lp7-17" edge="1">
          <mxGeometry width="50" height="50" relative="1" as="geometry">
            <mxPoint x="569" y="816" as="sourcePoint" />
            <mxPoint x="398" y="622" as="targetPoint" />
          </mxGeometry>
        </mxCell>
        <mxCell id="5zrF2HAZ6nG573hd0Lp7-32" value="" style="endArrow=none;html=1;rounded=0;exitX=0.5;exitY=0;exitDx=0;exitDy=0;" parent="WIyWlLk6GJQsqaUBKTNV-1" source="5zrF2HAZ6nG573hd0Lp7-12" edge="1">
          <mxGeometry width="50" height="50" relative="1" as="geometry">
            <mxPoint x="256" y="861" as="sourcePoint" />
            <mxPoint x="388" y="816" as="targetPoint" />
          </mxGeometry>
        </mxCell>
      </root>
    </mxGraphModel>
  </diagram>
</mxfile>
